<svg width="51" height="49" viewBox="0 0 51 49" fill="none" xmlns="http://www.w3.org/2000/svg">
<path d="M35.2086 35.8101C40.9017 29.6898 49.0849 17.271 49.0849 8.46395C49.0849 2.46507 46.3613 0.210235 40.6331 0.179953C38.4573 0.168797 36.3282 0.38236 34.0724 0.647878C35.5514 2.23111 36.5092 3.98647 36.5092 7.79935C36.5092 16.8334 31.6566 26.4794 27.8485 31.3068C21.1281 8.02439 19.9355 0.178997 5.43318 0.178997C3.63935 0.178997 2.17369 0.286735 0.195374 0.550978C8.67738 7.11245 12.8519 19.5447 20.1872 39.9886H26.4513C21.2202 42.8889 16.1261 45.9037 11.5233 45.9037C13.4723 47.9826 15.7441 48.8206 18.2347 48.8206C27.672 48.8206 39.7709 37.8489 50.0672 38.7981C47.1088 35.9373 44.1513 34.7127 41.0626 34.7127C39.1315 34.7127 37.1745 35.1344 35.2086 35.8101Z" fill="white"/>
</svg>
