<svg width="171" height="31" viewBox="0 0 171 31" fill="none" xmlns="http://www.w3.org/2000/svg">
<path d="M51.622 23.3329C47.3857 23.3329 43.9506 19.7942 43.9506 15.4267C43.9506 11.0614 47.3857 7.52165 51.622 7.52165C55.8587 7.52165 59.2935 11.0614 59.2935 15.4267C59.2935 19.7942 55.8587 23.3329 51.622 23.3329ZM92.6206 1.23877L86.454 20.5732L79.6661 1.23877H70.6255L81.6208 29.6161H91.2862L102.325 1.23877H92.6206ZM114.112 12.3568C114.897 9.44435 117.529 7.19206 120.795 7.19206C124.355 7.19206 126.746 9.37582 127.541 12.3568H114.112ZM136.305 15.4279C136.305 6.84909 130.065 0.219406 120.775 0.219406C112.802 0.219406 105.246 6.58835 105.246 15.4279C105.246 24.2685 111.979 30.6374 121.269 30.6374C127.541 30.6374 132.506 27.9389 134.848 25.232L129.052 20.5936C127.201 22.2084 125.02 23.3329 121.495 23.3329C118.033 23.3329 114.89 21.5584 114.004 18.0143H136.087C136.218 17.1775 136.305 16.3195 136.305 15.4279ZM21.4945 17.5039L8.93037 1.23845H0.551918V29.6158H8.7102V13.2694L21.4372 29.6158H29.6525V1.23845H21.4945V17.5039ZM169.658 1.23877H160.188L154.826 8.77721L149.442 1.23877H139.854L149.755 14.844L138.908 29.6161H148.386L154.716 20.9576L160.989 29.6161H170.577L159.786 14.7888L169.658 1.23877ZM51.5602 0.219406C42.2702 0.219406 35.5374 6.58708 35.5374 15.4279C35.5374 24.2685 42.2702 30.6374 51.5602 30.6374C60.8503 30.6374 67.5833 24.2685 67.5833 15.4279C67.5833 6.58708 60.8503 0.219406 51.5602 0.219406Z" fill="white"/>
</svg>
