<svg width="194" height="31" viewBox="0 0 194 31" fill="none" xmlns="http://www.w3.org/2000/svg">
<path d="M20.5297 1.23845V11.3027H8.68846V1.23845H0.0579834V29.6158H8.68846V18.7592H20.5297V29.6158H29.1598V1.23845H20.5297ZM49.8144 23.5321C45.578 23.5321 42.143 19.9934 42.143 15.6262C42.143 11.2609 45.578 7.72087 49.8144 7.72087C54.0508 7.72087 57.4859 11.2609 57.4859 15.6262C57.4859 19.9934 54.0508 23.5321 49.8144 23.5321ZM49.7526 0.418625C40.4626 0.418625 33.7295 6.78661 33.7295 15.6271C33.7295 24.468 40.4626 30.8369 49.7526 30.8369C59.0426 30.8369 65.7754 24.468 65.7754 15.6271C65.7754 6.78661 59.0426 0.418625 49.7526 0.418625ZM186.418 19.7055C185.433 22.078 182.993 23.7345 180.484 23.7345C175.98 23.7345 172.71 20.3373 172.71 15.6552C172.71 10.9728 175.98 7.57456 180.484 7.57456C182.993 7.57456 185.433 9.23206 186.418 11.6048L186.528 11.8713L193.448 8.59679L193.322 8.34594C191.52 4.74215 187.831 0.4454 180.484 0.4454C171.273 0.4454 164.589 6.84144 164.589 15.6552C164.589 24.4677 171.273 30.8647 180.484 30.8647C188.218 30.8647 191.847 25.9148 193.322 22.9641L193.448 22.7123L186.528 19.4391L186.418 19.7055ZM151.068 15.3364L163.966 1.23877H153.504L143.972 12.1834V1.23877H135.521V29.6161H143.972V19.2204L154.005 29.6161H164.621L151.068 15.3364ZM113.83 0.4454C106.017 0.4454 102.433 5.39654 100.992 8.34817L100.869 8.59775L107.785 11.8713L107.895 11.6048C108.728 9.59862 110.953 7.57456 114.046 7.57456C117.237 7.57456 119.688 9.1511 120.83 11.9172H111.058V18.96H120.981C119.925 22.0005 117.417 23.7345 114.046 23.7345C110.953 23.7345 108.728 21.7114 107.895 19.7055L107.785 19.4391L100.867 22.7123L100.993 22.9641C102.467 25.9148 106.096 30.8647 113.83 30.8647C123.04 30.8647 129.726 24.4677 129.726 15.6552C129.726 6.84144 123.04 0.4454 113.83 0.4454ZM85.7736 11.9268H78.3765V7.82255H85.7736C87.073 7.82255 87.9801 8.65799 87.9801 9.85331C87.9801 11.0936 87.0934 11.9268 85.7736 11.9268ZM78.3765 18.5523H86.0253C87.5203 18.5523 88.5252 19.4528 88.5252 20.7922C88.5252 22.1743 87.5675 23.032 86.0253 23.032H78.3765V18.5523ZM91.8038 14.9594C94.2588 13.9948 95.8471 11.5535 95.8471 8.60157C95.8471 5.05516 93.2067 1.23845 87.4078 1.23845H70.6353V29.6158H87.9116C90.5564 29.6158 92.7537 28.8075 94.2668 27.2771C95.6369 25.8915 96.3923 23.944 96.3923 21.794C96.3923 18.6218 94.4768 15.8535 91.8038 14.9594Z" fill="white"/>
</svg>
