<svg width="130" height="130" viewBox="0 0 130 130" fill="none" xmlns="http://www.w3.org/2000/svg">
<path d="M129.15 64.9955C129.15 100.432 100.432 129.15 65.0044 129.15C29.5676 129.15 0.849854 100.432 0.849854 64.9955C0.849854 29.5675 29.5676 0.849846 65.0044 0.849846C100.432 0.849846 129.15 29.5675 129.15 64.9955Z" fill="#232E7F"/>
<path d="M88.446 59.923H81.8597V62.8621L88.446 62.8557V66.8306H81.8597V70.0883H88.446V75.5503H75.0255V54.614H88.446V59.923Z" fill="white"/>
<path fill-rule="evenodd" clip-rule="evenodd" d="M102.725 52.8853C98.4849 60.3745 90.1281 75.5478 90.1281 75.5478H97.2898L98.4495 73.2727H106.992L108.125 75.5478H115.331L102.725 52.8853ZM100.105 69.8113C100.105 69.8306 102.725 64.4467 102.725 64.4467C102.725 64.4467 105.293 69.829 105.293 69.8113H100.105Z" fill="white"/>
<path fill-rule="evenodd" clip-rule="evenodd" d="M61.9149 63.9952L66.6068 54.6115H73.9013C73.9366 54.6115 61.9149 77.1059 61.9149 77.1059L49.9374 54.6115H57.2407C57.2407 54.6115 61.5431 63.3401 61.9149 63.9952Z" fill="white"/>
<path fill-rule="evenodd" clip-rule="evenodd" d="M48.8219 75.5479H41.9789V54.6115C41.9789 54.6115 48.8219 54.6372 48.8219 54.6115V75.5479Z" fill="white"/>
<path fill-rule="evenodd" clip-rule="evenodd" d="M28.9479 62.7116V54.6115H35.7909V77.1059L24.6721 67.4389V75.5479H17.8202V53.0269L28.9479 62.7116Z" fill="white"/>
</svg>
