<svg width="130" height="130" viewBox="0 0 130 130" fill="none" xmlns="http://www.w3.org/2000/svg">
<path d="M129.15 64.9955C129.15 100.432 100.432 129.15 65.0044 129.15C29.5676 129.15 0.849846 100.432 0.849846 64.9955C0.849846 29.5675 29.5676 0.849854 65.0044 0.849854C100.432 0.849854 129.15 29.5675 129.15 64.9955Z" fill="#232E7F"/>
<path d="M88.4461 59.9231H81.8597V62.8622L88.4461 62.8557V66.8306H81.8597V70.0883H88.4461V75.5504H75.0255V54.614H88.4461V59.9231Z" fill="white"/>
<path fill-rule="evenodd" clip-rule="evenodd" d="M102.725 52.8853C98.4849 60.3745 90.128 75.5478 90.128 75.5478H97.2897L98.4494 73.2727H106.992L108.125 75.5478H115.331L102.725 52.8853ZM100.105 69.8113C100.105 69.8306 102.725 64.4467 102.725 64.4467C102.725 64.4467 105.292 69.829 105.292 69.8113H100.105Z" fill="white"/>
<path fill-rule="evenodd" clip-rule="evenodd" d="M61.9149 63.9953L66.6068 54.6116H73.9013C73.9366 54.6116 61.9149 77.106 61.9149 77.106L49.9374 54.6116H57.2407C57.2407 54.6116 61.5431 63.3402 61.9149 63.9953Z" fill="white"/>
<path fill-rule="evenodd" clip-rule="evenodd" d="M48.8219 75.548H41.9789V54.6116C41.9789 54.6116 48.8219 54.6373 48.8219 54.6116V75.548Z" fill="white"/>
<path fill-rule="evenodd" clip-rule="evenodd" d="M28.9479 62.7115V54.6114H35.7909V77.1058L24.6721 67.4388V75.5478H17.8202V53.0269L28.9479 62.7115Z" fill="white"/>
</svg>
